<svg xmlns="http://www.w3.org/2000/svg" viewBox="0 0 358.13 397.62"><defs><style>.cls-1{fill:#3c3c3b;}</style></defs><title>Asset 34</title><g id="Layer_2" data-name="Layer 2"><g id="Layer_2-2" data-name="Layer 2"><path class="cls-1" d="M62.53,209.43c-16.22-8-31.7-18.94-44.07-34l14.06-8.89c6.8,15.12,18,29,31.45,40.72Z"/><path class="cls-1" d="M16,102.36c4.11-16,13-31.11,24.44-43.58s25.29-23,40.16-31.32a212.73,212.73,0,0,1,23.11-11A228.18,228.18,0,0,1,128,8.33a241.48,241.48,0,0,1,50.67-8c34.23-1.7,69.28,3.12,102.09,16.4C297.09,23.52,312.91,32.3,327.06,44a129.92,129.92,0,0,1,10.26,9.29l4.9,5c1.56,1.75,3,3.59,4.56,5.39L349,66.36l1.12,1.37,1,1.47,4.07,5.91c1.54,1.82,2,4.44.78,7.84A20.47,20.47,0,0,1,353,88.52a41,41,0,0,1-6.7,7l-2.35,1.14c-4.29,1-6.91,1.25-9.6,1.63a33.66,33.66,0,0,1-6,.26,8.32,8.32,0,0,1-3.56-.8A4.45,4.45,0,0,1,323,96l-2.77-4.1-.68-1-.8-1L317.1,87.9C316,86.6,315,85.28,313.9,84l-3.6-3.67a94.79,94.79,0,0,0-7.62-7,152,152,0,0,0-36.45-22.61c-26.72-12.18-56.79-18-87.09-19.15-7.58-.19-15.19-.12-22.79.35s-15.16,1.32-22.7,2.47A201.68,201.68,0,0,0,111.24,39a188,188,0,0,0-21.82,7.05,168.42,168.42,0,0,0-20.88,9.63,149.2,149.2,0,0,0-19.39,12.5A118.41,118.41,0,0,0,32.08,84,102.46,102.46,0,0,0,18.42,103.3Z"/><path class="cls-1" d="M51.19,297.67A40.85,40.85,0,0,0,48,302.92l-1.07,2.31c-.33.76-.55,1.45-.8,2.16a25.68,25.68,0,0,0-.92,3.88L45,313a13.42,13.42,0,0,0,.07,1.58c.37,4.13,2.75,6.56,4.92,9.18a87.31,87.31,0,0,0,6.86,7.68l3.67,3.66c1.21,1.26,2.63,2.26,3.93,3.42a132,132,0,0,0,36,21.53,203,203,0,0,0,40.81,11.37A324.25,324.25,0,0,0,183.58,376a228.3,228.3,0,0,0,84.5-12.49,184.74,184.74,0,0,0,38.91-19,158.22,158.22,0,0,0,33.39-28.31l2.35,1.78a153.07,153.07,0,0,1-30.54,33.64A193.49,193.49,0,0,1,273.31,376c-27.82,13.31-58.66,20.2-89.73,21.48a198.2,198.2,0,0,1-46.52-4,232.79,232.79,0,0,1-44.64-14.13,290.27,290.27,0,0,1-41.79-21.93A240.84,240.84,0,0,1,30.9,343.56c-.8-.63-1.63-1.23-2.41-1.88l-2.32-2a16.5,16.5,0,0,0-5.85-3c-4.73-1.36-10.38-2.08-20.32-.26Z"/><path class="cls-1" d="M62.57,207c24.17-13.77,51.29-22.51,79.15-26.35a242.33,242.33,0,0,1,84.5,3.13c27.89,6.07,55.13,17.38,78.8,35a181.12,181.12,0,0,1,16.9,14.4A153.8,153.8,0,0,1,336.84,250a133.81,133.81,0,0,1,21.29,40.6l-27.78,7.7c-5.39-23.46-20-45.25-39.33-62.11s-43.33-29.37-68.77-37a229.79,229.79,0,0,0-79.6-9.14,214.93,214.93,0,0,0-78.72,19.59Z"/><ellipse class="cls-1" cx="125.33" cy="293.58" rx="43.62" ry="40.38"/><ellipse class="cls-1" cx="248.78" cy="297.76" rx="43.62" ry="40.38"/><ellipse class="cls-1" cx="253.55" cy="127.58" rx="43.2" ry="40.62"/><ellipse class="cls-1" cx="125.33" cy="127.58" rx="43.2" ry="40.62"/></g></g></svg>