<svg xmlns="http://www.w3.org/2000/svg" viewBox="0 0 349.69 388.24"><defs><style>.cls-1{fill:#fff;}</style></defs><title>Asset 31</title><g id="Layer_2" data-name="Layer 2"><g id="Layer_2-2" data-name="Layer 2"><path class="cls-1" d="M61.05,204.49C45.22,196.67,30.1,186,18,171.3l13.72-8.69c6.65,14.77,17.61,28.33,30.71,39.76Z"/><path class="cls-1" d="M15.61,100c4-15.65,12.63-30.38,23.86-42.55S64.16,35,78.68,26.81a208.22,208.22,0,0,1,22.57-10.76A219.62,219.62,0,0,1,125,8.14,235.49,235.49,0,0,1,174.48.32c33.42-1.66,67.64,3.05,99.68,16C290.08,23,305.53,31.54,319.35,43a123.75,123.75,0,0,1,10,9.07l4.79,4.84c1.52,1.72,3,3.51,4.46,5.27l2.2,2.66,1.1,1.34,1,1.43,4,5.77c1.51,1.78,2,4.33.77,7.66a20.07,20.07,0,0,1-3,5.44,40.65,40.65,0,0,1-6.54,6.78l-2.3,1.11c-4.18.94-6.74,1.22-9.37,1.6a32.77,32.77,0,0,1-5.82.24,7.92,7.92,0,0,1-3.48-.78,4.3,4.3,0,0,1-1.82-1.7l-2.7-4-.66-1-.79-1-1.56-1.9c-1.05-1.26-2.06-2.55-3.13-3.81L303,78.43a92.23,92.23,0,0,0-7.45-6.88A148.71,148.71,0,0,0,260,49.47c-26.1-11.89-55.46-17.58-85-18.69-7.41-.19-14.84-.12-22.25.33s-14.81,1.3-22.17,2.42a199,199,0,0,0-21.88,4.56A185.61,185.61,0,0,0,87.31,45a164.73,164.73,0,0,0-20.38,9.4A146.49,146.49,0,0,0,48,66.58,115,115,0,0,0,31.33,82,100.27,100.27,0,0,0,18,100.86Z"/><path class="cls-1" d="M50,290.65a38.4,38.4,0,0,0-3.11,5.13l-1,2.26c-.32.74-.54,1.41-.79,2.11a25.32,25.32,0,0,0-.9,3.78L44,305.65a12.74,12.74,0,0,0,.07,1.54c.36,4,2.69,6.41,4.8,9a84.55,84.55,0,0,0,6.7,7.49l3.59,3.58c1.17,1.23,2.56,2.21,3.83,3.33a128.7,128.7,0,0,0,35.14,21A197.55,197.55,0,0,0,138,362.69a316,316,0,0,0,41.29,4.41,222.89,222.89,0,0,0,82.51-12.2,180.14,180.14,0,0,0,38-18.56,154.72,154.72,0,0,0,32.61-27.64l2.29,1.73a149.24,149.24,0,0,1-29.82,32.85,189.16,189.16,0,0,1-38,23.88c-27.17,13-57.28,19.73-87.62,21a194.23,194.23,0,0,1-45.42-3.86,227.64,227.64,0,0,1-43.58-13.81,282.17,282.17,0,0,1-40.81-21.41,230.22,230.22,0,0,1-19.26-13.6c-.79-.61-1.6-1.2-2.36-1.84l-2.27-2a16.21,16.21,0,0,0-5.71-2.93c-4.62-1.33-10.13-2-19.84-.25Z"/><path class="cls-1" d="M61.09,202.16c23.61-13.45,50.09-22,77.29-25.73a236.78,236.78,0,0,1,82.51,3c27.23,5.94,53.83,17,76.94,34.15a178.41,178.41,0,0,1,16.5,14.06,150.49,150.49,0,0,1,14.57,16.44,130.84,130.84,0,0,1,20.79,39.65l-27.13,7.52c-5.26-22.91-19.47-44.19-38.4-60.65S241.85,202,217,194.5a224.48,224.48,0,0,0-77.73-8.92,209.79,209.79,0,0,0-76.87,19.13Z"/><ellipse class="cls-1" cx="122.38" cy="286.66" rx="42.59" ry="39.43"/><ellipse class="cls-1" cx="242.92" cy="290.74" rx="42.59" ry="39.43"/><ellipse class="cls-1" cx="247.57" cy="124.57" rx="42.18" ry="39.67"/><ellipse class="cls-1" cx="122.38" cy="124.57" rx="42.18" ry="39.67"/></g></g></svg>