<svg id="Group_4" data-name="Group 4" xmlns="http://www.w3.org/2000/svg" width="300" height="100" viewBox="0 0 300 100">
  <path id="Path_7" data-name="Path 7" d="M0,100H300V0H0Z" fill="#262f56"/>
  <path id="Path_8" data-name="Path 8" d="M21.072,59.192a12.914,12.914,0,0,1-3.144-.384A8.418,8.418,0,0,1,15.48,57.8l1.248-2.688a8.126,8.126,0,0,0,2.088.912,9.042,9.042,0,0,0,2.4.336q2.376,0,2.376-1.176a.832.832,0,0,0-.648-.792,9.6,9.6,0,0,0-1.992-.408,19.217,19.217,0,0,1-2.616-.552,4.142,4.142,0,0,1-1.8-1.1,3.171,3.171,0,0,1-.744-2.256,3.523,3.523,0,0,1,.7-2.16,4.6,4.6,0,0,1,2.064-1.488,8.913,8.913,0,0,1,3.216-.528,11.955,11.955,0,0,1,2.712.312,7.4,7.4,0,0,1,2.256.816l-1.248,2.664a7.45,7.45,0,0,0-3.72-.96,3.785,3.785,0,0,0-1.8.336.988.988,0,0,0-.6.864.858.858,0,0,0,.648.84,11.471,11.471,0,0,0,2.064.456,20.318,20.318,0,0,1,2.592.576,3.8,3.8,0,0,1,1.752,1.08,3.1,3.1,0,0,1,.744,2.208,3.41,3.41,0,0,1-.72,2.136,4.67,4.67,0,0,1-2.112,1.464A9.455,9.455,0,0,1,21.072,59.192Zm19.614-13.1V59H37.134V57.464a5.1,5.1,0,0,1-1.776,1.3,5.722,5.722,0,0,1-2.232.432,5.5,5.5,0,0,1-4.032-1.464,5.836,5.836,0,0,1-1.488-4.344v-7.3H31.35v6.744q0,3.12,2.616,3.12a2.832,2.832,0,0,0,2.16-.864,3.742,3.742,0,0,0,.816-2.616V46.088Zm9.3-.192a6.44,6.44,0,0,1,3.264.84,5.821,5.821,0,0,1,2.328,2.328,6.961,6.961,0,0,1,.84,3.48,7.1,7.1,0,0,1-.84,3.5,6.028,6.028,0,0,1-2.328,2.328,6.589,6.589,0,0,1-3.264.816,4.987,4.987,0,0,1-3.888-1.56v6.024H42.355V46.088h3.576v1.488A4.966,4.966,0,0,1,49.987,45.9ZM49.339,56.12a3.1,3.1,0,0,0,2.352-.96,3.639,3.639,0,0,0,.936-2.616,3.554,3.554,0,0,0-.936-2.592,3.062,3.062,0,0,0-2.352-.984,3.138,3.138,0,0,0-2.376.984,3.608,3.608,0,0,0-.912,2.592,3.7,3.7,0,0,0,.912,2.616A3.177,3.177,0,0,0,49.339,56.12ZM64.757,45.9a6.44,6.44,0,0,1,3.264.84,5.821,5.821,0,0,1,2.328,2.328,6.961,6.961,0,0,1,.84,3.48,7.1,7.1,0,0,1-.84,3.5,6.028,6.028,0,0,1-2.328,2.328,6.589,6.589,0,0,1-3.264.816,4.987,4.987,0,0,1-3.888-1.56v6.024H57.125V46.088H60.7v1.488A4.966,4.966,0,0,1,64.757,45.9ZM64.109,56.12a3.1,3.1,0,0,0,2.352-.96,3.639,3.639,0,0,0,.936-2.616,3.554,3.554,0,0,0-.936-2.592,3.062,3.062,0,0,0-2.352-.984,3.138,3.138,0,0,0-2.376.984,3.608,3.608,0,0,0-.912,2.592,3.7,3.7,0,0,0,.912,2.616A3.177,3.177,0,0,0,64.109,56.12Zm13.93,3.072a7.906,7.906,0,0,1-3.672-.84,6.439,6.439,0,0,1-2.52-2.376,6.914,6.914,0,0,1,0-6.864,6.27,6.27,0,0,1,2.52-2.352,7.726,7.726,0,0,1,3.672-.864,7.585,7.585,0,0,1,3.648.864,6.27,6.27,0,0,1,2.52,2.352,6.914,6.914,0,0,1,0,6.864,6.439,6.439,0,0,1-2.52,2.376A7.761,7.761,0,0,1,78.039,59.192Zm0-3.072a3.1,3.1,0,0,0,2.352-.96,3.639,3.639,0,0,0,.936-2.616,3.554,3.554,0,0,0-.936-2.592,3.062,3.062,0,0,0-2.352-.984,3.138,3.138,0,0,0-2.376.984,3.554,3.554,0,0,0-.936,2.592,3.639,3.639,0,0,0,.936,2.616A3.177,3.177,0,0,0,78.039,56.12ZM89.4,47.792a4.175,4.175,0,0,1,1.8-1.416,6.815,6.815,0,0,1,2.64-.48v3.456Q93.214,49.3,93,49.3a3.406,3.406,0,0,0-2.52.912,3.6,3.6,0,0,0-.912,2.688V59H85.822V46.088H89.4Zm13.639,10.584a4,4,0,0,1-1.368.624,7.111,7.111,0,0,1-1.68.192,5.072,5.072,0,0,1-3.576-1.176,4.524,4.524,0,0,1-1.248-3.456v-5.3H93.173v-2.88h1.992V43.232h3.744v3.144h3.216v2.88H98.909v5.256a1.841,1.841,0,0,0,.408,1.272,1.621,1.621,0,0,0,1.2.432,2.406,2.406,0,0,0,1.512-.48ZM114.163,41.96a12.314,12.314,0,0,1,5.88,1.368,9.964,9.964,0,0,1,4.032,3.72,10.166,10.166,0,0,1,1.44,5.376,9.669,9.669,0,0,1-.624,3.648,5.02,5.02,0,0,1-1.7,2.3,4.33,4.33,0,0,1-2.592.792,3.8,3.8,0,0,1-2.064-.528,3.016,3.016,0,0,1-1.224-1.56,4.474,4.474,0,0,1-4.1,2.088,5.329,5.329,0,0,1-2.808-.768,5.519,5.519,0,0,1-2.016-2.136,6.8,6.8,0,0,1-.72-3.168,6.6,6.6,0,0,1,.72-3.12,5.537,5.537,0,0,1,1.992-2.16,5.373,5.373,0,0,1,2.832-.768,4.546,4.546,0,0,1,3.7,1.584V47.216h3.264v7.776q0,1.536,1.152,1.536a1.426,1.426,0,0,0,1.3-1.008,7.408,7.408,0,0,0,.48-3.048,8.034,8.034,0,0,0-1.128-4.272,7.47,7.47,0,0,0-3.144-2.9,9.89,9.89,0,0,0-4.656-1.056,9.511,9.511,0,0,0-4.68,1.128,7.955,7.955,0,0,0-3.144,3.072,8.966,8.966,0,0,0-1.1,4.464,9.2,9.2,0,0,0,1.1,4.536,7.833,7.833,0,0,0,3.1,3.072,9.325,9.325,0,0,0,4.632,1.128,10.521,10.521,0,0,0,4.728-1.056l.768,2.208a9.679,9.679,0,0,1-2.568.84,14.012,14.012,0,0,1-2.928.312,12.288,12.288,0,0,1-6.024-1.44,10.114,10.114,0,0,1-4.056-3.936,11.211,11.211,0,0,1-1.44-5.664,11.033,11.033,0,0,1,1.44-5.616,10.287,10.287,0,0,1,4.1-3.912A12.648,12.648,0,0,1,114.163,41.96Zm-.216,14.448a2.881,2.881,0,0,0,2.16-.864,3.419,3.419,0,0,0,.84-2.448,3.3,3.3,0,0,0-.84-2.4,2.881,2.881,0,0,0-2.16-.864,2.793,2.793,0,0,0-2.16.888,3.321,3.321,0,0,0-.816,2.376,3.445,3.445,0,0,0,.816,2.424A2.793,2.793,0,0,0,113.947,56.408Zm16.78,2.784a12.914,12.914,0,0,1-3.144-.384,8.418,8.418,0,0,1-2.448-1.008l1.248-2.688a8.126,8.126,0,0,0,2.088.912,9.042,9.042,0,0,0,2.4.336q2.376,0,2.376-1.176a.832.832,0,0,0-.648-.792,9.6,9.6,0,0,0-1.992-.408,19.217,19.217,0,0,1-2.616-.552,4.143,4.143,0,0,1-1.8-1.1,3.171,3.171,0,0,1-.744-2.256,3.523,3.523,0,0,1,.7-2.16,4.6,4.6,0,0,1,2.064-1.488,8.913,8.913,0,0,1,3.216-.528,11.955,11.955,0,0,1,2.712.312,7.4,7.4,0,0,1,2.256.816l-1.248,2.664a7.451,7.451,0,0,0-3.72-.96,3.785,3.785,0,0,0-1.8.336.988.988,0,0,0-.6.864.858.858,0,0,0,.648.84,11.471,11.471,0,0,0,2.064.456,20.318,20.318,0,0,1,2.592.576,3.8,3.8,0,0,1,1.752,1.08,3.1,3.1,0,0,1,.744,2.208,3.41,3.41,0,0,1-.72,2.136,4.67,4.67,0,0,1-2.112,1.464A9.455,9.455,0,0,1,130.727,59.192Zm12.75,0a7.906,7.906,0,0,1-3.672-.84,6.439,6.439,0,0,1-2.52-2.376,6.914,6.914,0,0,1,0-6.864,6.27,6.27,0,0,1,2.52-2.352,7.726,7.726,0,0,1,3.672-.864,7.585,7.585,0,0,1,3.648.864,6.27,6.27,0,0,1,2.52,2.352,6.914,6.914,0,0,1,0,6.864,6.439,6.439,0,0,1-2.52,2.376A7.761,7.761,0,0,1,143.477,59.192Zm0-3.072a3.1,3.1,0,0,0,2.352-.96,3.638,3.638,0,0,0,.936-2.616,3.554,3.554,0,0,0-.936-2.592,3.062,3.062,0,0,0-2.352-.984,3.138,3.138,0,0,0-2.376.984,3.554,3.554,0,0,0-.936,2.592,3.639,3.639,0,0,0,.936,2.616A3.177,3.177,0,0,0,143.477,56.12Zm20.79-10.032V59h-3.552V57.464a5.1,5.1,0,0,1-1.776,1.3,5.722,5.722,0,0,1-2.232.432,5.5,5.5,0,0,1-4.032-1.464,5.836,5.836,0,0,1-1.488-4.344v-7.3h3.744v6.744q0,3.12,2.616,3.12a2.832,2.832,0,0,0,2.16-.864,3.742,3.742,0,0,0,.816-2.616V46.088Zm9.517-.192a5.272,5.272,0,0,1,3.864,1.44,5.683,5.683,0,0,1,1.488,4.272V59h-3.744V52.184a3.318,3.318,0,0,0-.672-2.28,2.445,2.445,0,0,0-1.944-.768,2.958,2.958,0,0,0-2.256.888,3.583,3.583,0,0,0-.84,2.592V59h-3.744V46.088h3.576V47.6a4.847,4.847,0,0,1,1.848-1.248A6.289,6.289,0,0,1,173.784,45.9Zm20.238-4.7V59h-3.576V57.512a4.937,4.937,0,0,1-4.032,1.68,6.773,6.773,0,0,1-3.312-.816,5.865,5.865,0,0,1-2.3-2.328,7.728,7.728,0,0,1,0-7.008,5.865,5.865,0,0,1,2.3-2.328,6.773,6.773,0,0,1,3.312-.816,4.911,4.911,0,0,1,3.864,1.56V41.192Zm-6.96,14.928a3.148,3.148,0,0,0,2.352-.96,3.639,3.639,0,0,0,.936-2.616,3.554,3.554,0,0,0-.936-2.592,3.332,3.332,0,0,0-4.728,0,3.554,3.554,0,0,0-.936,2.592,3.638,3.638,0,0,0,.936,2.616A3.177,3.177,0,0,0,187.062,56.12Zm14.865,3.072a8.106,8.106,0,0,1-3.72-.84,6.687,6.687,0,0,1-2.568-9.24,6.4,6.4,0,0,1,2.568-2.352,7.92,7.92,0,0,1,3.72-.864,7.037,7.037,0,0,1,3.552.864,4.979,4.979,0,0,1,2.232,2.424l-2.9,1.56a3.174,3.174,0,0,0-2.9-1.776,3.286,3.286,0,0,0-2.424.96,4.044,4.044,0,0,0,0,5.232,3.286,3.286,0,0,0,2.424.96,3.141,3.141,0,0,0,2.9-1.776l2.9,1.584a5.14,5.14,0,0,1-2.232,2.4A7.037,7.037,0,0,1,201.927,59.192Zm6.046-18h3.744V59h-3.744ZM218.6,45.9a6.683,6.683,0,0,1,4.608,1.44,5.426,5.426,0,0,1,1.608,4.3V59h-3.5V57.392q-1.056,1.8-3.936,1.8a6.192,6.192,0,0,1-2.592-.5,3.858,3.858,0,0,1-1.656-1.392,3.623,3.623,0,0,1-.576-2.016,3.375,3.375,0,0,1,1.344-2.832,6.967,6.967,0,0,1,4.2-1.032h2.976a2.349,2.349,0,0,0-.744-1.872,3.237,3.237,0,0,0-2.232-.672,6.413,6.413,0,0,0-2.04.336,5.205,5.205,0,0,0-1.68.864l-1.344-2.616a8.123,8.123,0,0,1,2.52-1.152A11.474,11.474,0,0,1,218.6,45.9Zm-.288,10.776a3.331,3.331,0,0,0,1.7-.432,2.486,2.486,0,0,0,1.056-1.32V53.6H218.5q-2.3,0-2.3,1.512a1.389,1.389,0,0,0,.552,1.152A2.653,2.653,0,0,0,218.312,56.672Zm18.725-.552V59h-11.52V56.744l6.576-7.776h-6.408v-2.88h11.136v2.256l-6.576,7.776Zm2.155,3.072a2.25,2.25,0,0,1-1.656-.672,2.279,2.279,0,0,1-.672-1.68,2.152,2.152,0,0,1,.672-1.656,2.44,2.44,0,0,1,3.312,0,2.152,2.152,0,0,1,.672,1.656,2.279,2.279,0,0,1-.672,1.68A2.25,2.25,0,0,1,239.192,59.192Zm9.142,0a8.106,8.106,0,0,1-3.72-.84,6.687,6.687,0,0,1-2.568-9.24,6.4,6.4,0,0,1,2.568-2.352,7.92,7.92,0,0,1,3.72-.864,7.037,7.037,0,0,1,3.552.864,4.979,4.979,0,0,1,2.232,2.424l-2.9,1.56a3.174,3.174,0,0,0-2.9-1.776,3.286,3.286,0,0,0-2.424.96,4.044,4.044,0,0,0,0,5.232,3.286,3.286,0,0,0,2.424.96,3.141,3.141,0,0,0,2.9-1.776l2.9,1.584a5.14,5.14,0,0,1-2.232,2.4A7.037,7.037,0,0,1,248.334,59.192Zm12.119,0a7.905,7.905,0,0,1-3.672-.84,6.439,6.439,0,0,1-2.52-2.376,6.914,6.914,0,0,1,0-6.864,6.27,6.27,0,0,1,2.52-2.352,7.725,7.725,0,0,1,3.672-.864,7.585,7.585,0,0,1,3.648.864,6.27,6.27,0,0,1,2.52,2.352,6.914,6.914,0,0,1,0,6.864,6.439,6.439,0,0,1-2.52,2.376A7.761,7.761,0,0,1,260.453,59.192Zm0-3.072a3.1,3.1,0,0,0,2.352-.96,3.639,3.639,0,0,0,.936-2.616,3.554,3.554,0,0,0-.936-2.592,3.062,3.062,0,0,0-2.352-.984,3.138,3.138,0,0,0-2.376.984,3.554,3.554,0,0,0-.936,2.592,3.639,3.639,0,0,0,.936,2.616A3.177,3.177,0,0,0,260.453,56.12ZM284.772,45.9a5.14,5.14,0,0,1,3.84,1.44,5.746,5.746,0,0,1,1.44,4.272V59h-3.744V52.184a3.4,3.4,0,0,0-.648-2.28,2.185,2.185,0,0,0-1.8-.768,2.652,2.652,0,0,0-2.088.864A3.625,3.625,0,0,0,281,52.52V59H277.26V52.184q0-3.048-2.448-3.048a2.624,2.624,0,0,0-2.064.864,3.625,3.625,0,0,0-.768,2.52V59h-3.744V46.088h3.576v1.488a4.747,4.747,0,0,1,1.752-1.248,6.028,6.028,0,0,1,2.3-.432,5.45,5.45,0,0,1,2.472.552,4.292,4.292,0,0,1,1.776,1.56,5.319,5.319,0,0,1,1.992-1.56A6.4,6.4,0,0,1,284.772,45.9Z" fill="#fff"/>
</svg>
