<svg xmlns="http://www.w3.org/2000/svg" viewBox="0 0 722.05 192.08"><defs><style>.cls-1{fill:#fff;}</style></defs><title>Asset 32</title><g id="Layer_2" data-name="Layer 2"><g id="Layer_2-2" data-name="Layer 2"><path class="cls-1" d="M198.37,105.12a64.12,64.12,0,0,0,6.46,1.93,34.74,34.74,0,0,0,8.25.83q7.68,0,11.47-3.08a10.16,10.16,0,0,0,3.8-8.32,11.12,11.12,0,0,0-.8-4.42,8.46,8.46,0,0,0-2.39-3.17,18,18,0,0,0-4-2.44q-2.38-1.1-5.57-2.39L210.27,82a37.08,37.08,0,0,1-5-2.44,15.21,15.21,0,0,1-3.89-3.27,14.54,14.54,0,0,1-2.57-4.46,17.18,17.18,0,0,1-.94-6q0-8.37,5.81-13.11T220,47.92a47.54,47.54,0,0,1,8.53.73,46.45,46.45,0,0,1,7.12,1.84,28.72,28.72,0,0,1-2.06,7.64,45.77,45.77,0,0,0-5.86-1.66,35.09,35.09,0,0,0-7.54-.74c-3.94,0-7,.79-9.09,2.35s-3.19,3.91-3.19,7a7.3,7.3,0,0,0,.8,3.44,8.94,8.94,0,0,0,2.11,2.67,14.86,14.86,0,0,0,3.09,2.07A35.44,35.44,0,0,0,217.67,75l5.24,2a56.59,56.59,0,0,1,6.66,3.08,20.53,20.53,0,0,1,5,3.77,14.43,14.43,0,0,1,3.14,5.11,20,20,0,0,1,1.08,6.89q0,9.48-6.65,15t-18.65,5.47c-1.93,0-3.68-.06-5.24-.18s-3-.31-4.36-.55-2.64-.56-3.89-.92-2.53-.77-3.84-1.2a19.76,19.76,0,0,1,.84-4.14Q197.62,107.14,198.37,105.12Z"/><path class="cls-1" d="M277.07,116.25a29.25,29.25,0,0,1-12.65-2.53,23.81,23.81,0,0,1-8.85-7.08,31.13,31.13,0,0,1-5.25-10.81,50.92,50.92,0,0,1-1.73-13.7,51,51,0,0,1,1.73-13.7,31.13,31.13,0,0,1,5.25-10.81,24.34,24.34,0,0,1,8.85-7.13,32.42,32.42,0,0,1,25.3,0,24.34,24.34,0,0,1,8.85,7.13,30.2,30.2,0,0,1,5.2,10.81,52.25,52.25,0,0,1,1.69,13.7,52.19,52.19,0,0,1-1.69,13.7,30.2,30.2,0,0,1-5.2,10.81,23.81,23.81,0,0,1-8.85,7.08A29.25,29.25,0,0,1,277.07,116.25Zm0-8.09a17.24,17.24,0,0,0,8.11-1.8,15.1,15.1,0,0,0,5.66-5.19A25.2,25.2,0,0,0,294.22,93a47.49,47.49,0,0,0,1.12-10.85,47.81,47.81,0,0,0-1.12-10.81,24.6,24.6,0,0,0-3.38-8.18A15.24,15.24,0,0,0,285.18,58,19.15,19.15,0,0,0,269,58a15.27,15.27,0,0,0-5.67,5.15,24.6,24.6,0,0,0-3.38,8.18,47.81,47.81,0,0,0-1.12,10.81A47.49,47.49,0,0,0,259.92,93a25.2,25.2,0,0,0,3.38,8.19,15.13,15.13,0,0,0,5.67,5.19A17.17,17.17,0,0,0,277.07,108.16Z"/><path class="cls-1" d="M318.76,49a41,41,0,0,1,4.88-.28,37.75,37.75,0,0,1,4.68.28V86.54a54.28,54.28,0,0,0,.75,9.75,17.5,17.5,0,0,0,2.44,6.58,9.89,9.89,0,0,0,4.45,3.72,17,17,0,0,0,6.79,1.2,16.78,16.78,0,0,0,6.75-1.2,10,10,0,0,0,4.4-3.72,17.85,17.85,0,0,0,2.44-6.58,55.31,55.31,0,0,0,.74-9.75V49a41.88,41.88,0,0,1,4.78-.28,41,41,0,0,1,4.88.28V88.2a50.86,50.86,0,0,1-1.27,11.86,22.36,22.36,0,0,1-4.12,8.83,18.12,18.12,0,0,1-7.45,5.48,34,34,0,0,1-22.3,0,18.12,18.12,0,0,1-7.45-5.48,22.36,22.36,0,0,1-4.12-8.83,50.86,50.86,0,0,1-1.27-11.86Z"/><path class="cls-1" d="M382.57,49c.69-.12,1.42-.21,2.2-.28s1.52-.09,2.2-.09,1.42,0,2.2.09,1.52.16,2.21.28L420.7,98.69V49c.75-.12,1.53-.21,2.35-.28s1.62-.09,2.43-.09,1.41,0,2.16.09,1.46.16,2.15.28v66.13c-.69.12-1.42.21-2.2.27s-1.52.1-2.2.1-1.42,0-2.2-.1-1.52-.15-2.21-.27L391.56,65.76v49.39c-.68.12-1.42.21-2.2.27s-1.54.1-2.29.1-1.61,0-2.39-.1a18.86,18.86,0,0,1-2.11-.27Z"/><path class="cls-1" d="M446.37,49q3.19-.36,7.69-.69c3-.21,5.93-.32,8.81-.32q17.7,0,26.46,8.83t8.76,25.38q0,17.3-8.94,25.66t-26.66,8.37q-4.41,0-8.71-.32c-2.88-.22-5.34-.48-7.41-.78Zm9.56,58.4c.88.13,1.95.23,3.23.32s2.64.14,4.08.14a38.1,38.1,0,0,0,10.07-1.24A18,18,0,0,0,486.2,94.5,38.11,38.11,0,0,0,488,82a34.65,34.65,0,0,0-1.78-11.78,20.41,20.41,0,0,0-5-8,19.17,19.17,0,0,0-7.73-4.46,33.76,33.76,0,0,0-9.93-1.38c-1.19,0-2.48,0-3.89,0a25.53,25.53,0,0,0-3.7.33Z"/><path class="cls-1" d="M554.78,105.49a24.65,24.65,0,0,1,2.62,7.63,37.46,37.46,0,0,1-8.06,2.4,50.66,50.66,0,0,1-8.9.73,35.18,35.18,0,0,1-13.16-2.34,26.74,26.74,0,0,1-9.88-6.72,29.68,29.68,0,0,1-6.19-10.62,42.94,42.94,0,0,1-2.15-14.07,44.5,44.5,0,0,1,2.15-14.3,30.94,30.94,0,0,1,6.19-10.9,27,27,0,0,1,9.83-6.95,33.51,33.51,0,0,1,13-2.43,49.6,49.6,0,0,1,9.18.73,53,53,0,0,1,6.84,1.75,16.83,16.83,0,0,1-.8,3.91c-.4,1.19-.89,2.47-1.45,3.82-.94-.31-1.84-.59-2.72-.83s-1.81-.46-2.81-.65a32.38,32.38,0,0,0-3.32-.41c-1.22-.09-2.61-.14-4.17-.14q-10.21,0-15.89,6.81T519.46,82.5a36,36,0,0,0,1.59,11.31,21.22,21.22,0,0,0,4.5,7.91,18.21,18.21,0,0,0,7,4.69,25.34,25.34,0,0,0,9.13,1.56,36,36,0,0,0,7.12-.64A30.61,30.61,0,0,0,554.78,105.49Z"/><path class="cls-1" d="M569.68,49c.68-.12,1.42-.21,2.2-.28s1.61-.09,2.48-.09,1.63,0,2.44.09,1.59.16,2.34.28v57.85h26.42a15.79,15.79,0,0,1,.24,2.12c0,.73,0,1.41,0,2a28.46,28.46,0,0,1-.28,4.14H569.68Z"/><path class="cls-1" d="M649.22,99.88H623.64l-4.59,15.27q-1.21.18-2.43.27c-.82.06-1.63.1-2.44.1s-1.73,0-2.58-.1a22.94,22.94,0,0,1-2.29-.27L631.23,49c.81-.12,1.69-.21,2.63-.28s1.9-.09,2.9-.09,1.78,0,2.72.09,1.84.16,2.72.28L664,115.15c-.75.12-1.6.21-2.53.27s-1.85.1-2.72.1-1.64,0-2.48-.1-1.64-.15-2.39-.27ZM626.17,91.7h20.52l-10.3-33.76Z"/><path class="cls-1" d="M667.87,114.32l33.91-57.11h-29.7a15,15,0,0,1-.28-1.94c-.06-.73-.09-1.44-.09-2.11s0-1.38.09-2.12a18.25,18.25,0,0,1,.28-2h43.76l.65.83-34,57.11h31.58a14.7,14.7,0,0,1,.28,2q.09,1.16.09,2.16c0,.68,0,1.38-.09,2.12a14.83,14.83,0,0,1-.28,1.93H668.43Z"/><path class="cls-1" d="M197.18,125.27a15.76,15.76,0,0,1,2.39-.33c1-.09,2.06-.13,3.11-.13a14.48,14.48,0,0,1,3.55.41,7.29,7.29,0,0,1,2.75,1.34,6.1,6.1,0,0,1,1.78,2.4,9,9,0,0,1,.63,3.56,8.54,8.54,0,0,1-.32,2.37,7.67,7.67,0,0,1-.87,1.94,5.73,5.73,0,0,1-1.27,1.4,4.84,4.84,0,0,1-1.47.8,6.11,6.11,0,0,1,1.93.62,5.82,5.82,0,0,1,1.76,1.4,7.09,7.09,0,0,1,1.28,2.29,10,10,0,0,1,.5,3.36,9.39,9.39,0,0,1-.79,4.06,7.16,7.16,0,0,1-2.13,2.7,8.48,8.48,0,0,1-3.18,1.48,15.82,15.82,0,0,1-3.91.46c-.87,0-1.81-.05-2.84-.15s-2-.21-2.9-.35Zm5.94,12.36a4.86,4.86,0,0,0,3.56-1.21,4.93,4.93,0,0,0,1.23-3.65,4.42,4.42,0,0,0-1.32-3.51,5.26,5.26,0,0,0-3.57-1.15c-.45,0-.89,0-1.31,0s-.78.07-1.08.12v9.36Zm-2.49,14c.32,0,.72.09,1.21.12s1,0,1.45,0a10,10,0,0,0,2.31-.25,5,5,0,0,0,1.9-.84,4.17,4.17,0,0,0,1.3-1.61,6.15,6.15,0,0,0,.47-2.57,6.75,6.75,0,0,0-.44-2.58,4.45,4.45,0,0,0-1.21-1.69,4.57,4.57,0,0,0-1.83-.91,9.28,9.28,0,0,0-2.29-.27h-2.87Z"/><path class="cls-1" d="M217.2,133.76a6.87,6.87,0,0,1,.72-.13c.22,0,.46,0,.71,0s.5,0,.76,0a4.32,4.32,0,0,1,.68.13c.07.41.14,1,.2,1.63a17,17,0,0,1,.11,1.71,8,8,0,0,1,1.89-2.44,4.49,4.49,0,0,1,3-1l.56,0a4.41,4.41,0,0,1,.49.07c.05.24.08.5.11.78s0,.56,0,.86,0,.68-.05,1-.07.7-.12,1a1.77,1.77,0,0,0-.56-.09h-.46a5.13,5.13,0,0,0-1.76.31,3.72,3.72,0,0,0-1.51,1.09,6,6,0,0,0-1.06,2.15,13,13,0,0,0-.39,3.5V154.9a6.2,6.2,0,0,1-.84.13c-.3,0-.58,0-.83,0s-.53,0-.84,0a7.25,7.25,0,0,1-.87-.13Z"/><path class="cls-1" d="M238.82,141a4.51,4.51,0,0,0-1-3.38,4.24,4.24,0,0,0-3-1,10.55,10.55,0,0,0-2.24.23,14,14,0,0,0-2,.6,7.44,7.44,0,0,1-.65-3.26,13.27,13.27,0,0,1,2.56-.7,15,15,0,0,1,2.7-.25,6.8,6.8,0,0,1,5.19,1.88q1.78,1.88,1.78,6v13.23c-.8.22-1.77.44-2.91.68a17.56,17.56,0,0,1-3.48.35,11.67,11.67,0,0,1-3-.37,5.7,5.7,0,0,1-2.29-1.2,5.38,5.38,0,0,1-1.45-2.1,8.12,8.12,0,0,1-.52-3.09,7.54,7.54,0,0,1,.6-3.11,6.27,6.27,0,0,1,1.62-2.23,6.85,6.85,0,0,1,2.36-1.32,9,9,0,0,1,2.8-.43q1.1,0,1.8.06c.46,0,.85.09,1.17.14Zm0,4c-.34-.06-.77-.11-1.29-.17s-1-.08-1.34-.08a4.88,4.88,0,0,0-3.23.95,3.58,3.58,0,0,0-1.11,2.89,4.1,4.1,0,0,0,.38,1.93,2.75,2.75,0,0,0,.94,1.07,2.91,2.91,0,0,0,1.25.46,11.92,11.92,0,0,0,1.3.08,13,13,0,0,0,1.62-.1,8,8,0,0,0,1.48-.31Z"/><path class="cls-1" d="M247.23,133.76a6.6,6.6,0,0,1,.73-.13c.24,0,.49,0,.74,0s.48,0,.7,0,.45.07.7.13c.07.41.13,1,.2,1.67s.11,1.28.11,1.75a7.31,7.31,0,0,1,.87-1.4,6.87,6.87,0,0,1,1.21-1.26,6,6,0,0,1,1.57-.91,5.33,5.33,0,0,1,1.95-.35,5,5,0,0,1,4.44,2.08c1,1.39,1.43,3.45,1.43,6.17V154.9a6.11,6.11,0,0,1-.85.13c-.32,0-.6,0-.85,0s-.53,0-.84,0a6.2,6.2,0,0,1-.84-.13V142.62a9.42,9.42,0,0,0-.75-4.31,2.53,2.53,0,0,0-2.39-1.38,4.17,4.17,0,0,0-1.81.41,4.23,4.23,0,0,0-1.51,1.28,6.92,6.92,0,0,0-1,2.25,12.29,12.29,0,0,0-.39,3.32V154.9a6.2,6.2,0,0,1-.84.13c-.3,0-.58,0-.83,0s-.54,0-.86,0a6.11,6.11,0,0,1-.85-.13Z"/><path class="cls-1" d="M278.21,124.69a6.27,6.27,0,0,1,.86-.13c.32,0,.59,0,.82,0s.53,0,.83,0a6.2,6.2,0,0,1,.84.13v29.64a21.34,21.34,0,0,1-2.9.76,19.6,19.6,0,0,1-3.59.31,10.92,10.92,0,0,1-3.5-.56,7.06,7.06,0,0,1-2.89-1.83,8.88,8.88,0,0,1-1.94-3.3,15,15,0,0,1-.72-5,16.26,16.26,0,0,1,.63-4.66,11,11,0,0,1,1.79-3.6,8.18,8.18,0,0,1,2.79-2.33,7.82,7.82,0,0,1,3.6-.83,10,10,0,0,1,1.79.17,10.14,10.14,0,0,1,1.59.41Zm0,12.65a6.27,6.27,0,0,0-1.46-.49,8.4,8.4,0,0,0-1.71-.17,4.62,4.62,0,0,0-2.43.62,5.06,5.06,0,0,0-1.69,1.69,8.31,8.31,0,0,0-1,2.54,14.47,14.47,0,0,0-.33,3.19q0,3.92,1.54,5.61a5.2,5.2,0,0,0,4.1,1.69,13.76,13.76,0,0,0,1.64-.1,7.25,7.25,0,0,0,1.33-.31Z"/><path class="cls-1" d="M288,137H285.8a5,5,0,0,1-.1-.76,8.95,8.95,0,0,1,0-1.69,5,5,0,0,1,.1-.76h5.53V154.9a6.29,6.29,0,0,1-.83.13c-.31,0-.59,0-.84,0s-.5,0-.8,0a6.2,6.2,0,0,1-.84-.13Zm-.75-7.87a8.72,8.72,0,0,1-.09-1.07c0-.39,0-.73,0-1s0-.65,0-1a7.45,7.45,0,0,1,.09-1,8.39,8.39,0,0,1,1-.13c.35,0,.64,0,.89,0s.55,0,.89,0a7.27,7.27,0,0,1,.92.13,7.45,7.45,0,0,1,.09,1c0,.38,0,.72,0,1s0,.64,0,1a8.72,8.72,0,0,1-.09,1.07,7.29,7.29,0,0,1-.9.12c-.33,0-.62,0-.87,0s-.58,0-.93,0A8.48,8.48,0,0,1,287.27,129.1Z"/><path class="cls-1" d="M296.83,133.76a6.77,6.77,0,0,1,.74-.13c.24,0,.48,0,.73,0s.49,0,.7,0a7,7,0,0,1,.7.13c.07.41.14,1,.21,1.67s.1,1.28.1,1.75a8.46,8.46,0,0,1,.87-1.4,7.22,7.22,0,0,1,1.21-1.26,6.21,6.21,0,0,1,1.57-.91,5.4,5.4,0,0,1,1.95-.35,5,5,0,0,1,4.44,2.08,10.88,10.88,0,0,1,1.44,6.17V154.9a6.27,6.27,0,0,1-.86.13c-.31,0-.6,0-.85,0s-.53,0-.84,0a6.29,6.29,0,0,1-.83-.13V142.62a9.27,9.27,0,0,0-.76-4.31,2.52,2.52,0,0,0-2.39-1.38,4.2,4.2,0,0,0-1.81.41,4.12,4.12,0,0,0-1.5,1.28,6.92,6.92,0,0,0-1,2.25,12.26,12.26,0,0,0-.4,3.32V154.9a6,6,0,0,1-.83.13c-.31,0-.59,0-.84,0s-.53,0-.85,0a6.27,6.27,0,0,1-.86-.13Z"/><path class="cls-1" d="M326,152.18a6,6,0,0,1,4.41,1.57,5.8,5.8,0,0,1,1.37,4.08,6.28,6.28,0,0,1-.72,3,7.26,7.26,0,0,1-2,2.31,9.3,9.3,0,0,1-3,1.48,12.81,12.81,0,0,1-3.74.52,9.17,9.17,0,0,1-5.37-1.32,4.77,4.77,0,0,1-1.84-4.16,6.08,6.08,0,0,1,.75-3,5.9,5.9,0,0,1,1.95-2.13,4.42,4.42,0,0,1-1.15-1.34,4,4,0,0,1-.46-2,5.7,5.7,0,0,1,.57-2.63,6.48,6.48,0,0,1,1.52-2,6.71,6.71,0,0,1-1.81-2.46,8,8,0,0,1-.69-3.4,8.68,8.68,0,0,1,.48-2.92,7,7,0,0,1,1.38-2.37,6.26,6.26,0,0,1,2.24-1.59,7.66,7.66,0,0,1,3-.58,7,7,0,0,1,2.79.54,7.41,7.41,0,0,1,2.13,1.36,5.3,5.3,0,0,1,1.85-1.09,7.2,7.2,0,0,1,2.56-.44,10.27,10.27,0,0,1,.14,1.73c0,.31,0,.62,0,.95s-.06.66-.1,1h-3.08a6.37,6.37,0,0,1,.58,1.53,7.69,7.69,0,0,1,.21,1.89,8.59,8.59,0,0,1-.51,3.05A6.55,6.55,0,0,1,328,146.1a6.34,6.34,0,0,1-2.23,1.49,7.71,7.71,0,0,1-2.84.51,8.05,8.05,0,0,1-2.53-.37,3.87,3.87,0,0,0-.94,1,2.6,2.6,0,0,0-.46,1.46,2,2,0,0,0,.45,1.3,2.62,2.62,0,0,0,2,.6Zm-4.61,3.26a2.61,2.61,0,0,0-2.31,1,4,4,0,0,0-.76,2.47,3.24,3.24,0,0,0,.3,1.49,2.48,2.48,0,0,0,.87.92,3.81,3.81,0,0,0,1.34.5,9.7,9.7,0,0,0,1.69.14,7.27,7.27,0,0,0,4.27-1.09,3.27,3.27,0,0,0,1.54-2.74,2.6,2.6,0,0,0-.65-1.9,3.5,3.5,0,0,0-2.4-.7Zm1.57-10.31a3.14,3.14,0,0,0,2.73-1.23,5.27,5.27,0,0,0,.89-3.18,5.41,5.41,0,0,0-.89-3.23,3.11,3.11,0,0,0-2.73-1.26,3.06,3.06,0,0,0-2.71,1.26,5.55,5.55,0,0,0-.88,3.23,5.41,5.41,0,0,0,.88,3.18A3.09,3.09,0,0,0,322.93,145.13Z"/><path class="cls-1" d="M347.15,132a4,4,0,0,0,1,2.82,4.08,4.08,0,0,0,3.12,1.05h7.45l3.14-5.19h.28v5.19h4.44a8.6,8.6,0,0,1,.13,1.61c0,.3,0,.6,0,.88s-.06.57-.1.85h-4.44v6.1a12.36,12.36,0,0,1-.72,4.41,8.17,8.17,0,0,1-2,3.15,8.44,8.44,0,0,1-3.19,1.88,13.14,13.14,0,0,1-4.12.62,12.27,12.27,0,0,1-3.49-.5,8.2,8.2,0,0,1-2.95-1.56,7.63,7.63,0,0,1-2-2.76,9.89,9.89,0,0,1-.76-4.09,11.26,11.26,0,0,1,1.25-5.13,9.37,9.37,0,0,1,1.4-2,6.1,6.1,0,0,1,1.73-1.29,7.1,7.1,0,0,1-2.48-2.25,6.86,6.86,0,0,1-1-3.94,8,8,0,0,1,.58-3.15,6.37,6.37,0,0,1,1.57-2.23,6.46,6.46,0,0,1,2.35-1.32,9.45,9.45,0,0,1,2.85-.43,13.46,13.46,0,0,1,2,.17,9.88,9.88,0,0,1,2.29.66,8.62,8.62,0,0,1-.21,1.66,5.67,5.67,0,0,1-.54,1.43,10.31,10.31,0,0,0-1.71-.48,9.92,9.92,0,0,0-1.61-.14,4.59,4.59,0,0,0-1.89.35,3.66,3.66,0,0,0-1.27.91,3.49,3.49,0,0,0-.72,1.25A5,5,0,0,0,347.15,132Zm5.16,19.66a7.52,7.52,0,0,0,3.26-.62,5,5,0,0,0,2-1.65,6.24,6.24,0,0,0,1-2.39,13.64,13.64,0,0,0,.28-2.8v-4.91H351.9a4.66,4.66,0,0,0-2.22.52,4.86,4.86,0,0,0-1.67,1.42,6.81,6.81,0,0,0-1.06,2.08,8.16,8.16,0,0,0-.38,2.49,6,6,0,0,0,1.47,4.35A5.67,5.67,0,0,0,352.31,151.69Z"/><path class="cls-1" d="M390,148.06H380.7L379,154.9c-.3.06-.6.1-.89.13s-.59,0-.89,0-.63,0-.94,0a6.2,6.2,0,0,1-.84-.13l8-29.63a8.39,8.39,0,0,1,.95-.13c.35,0,.7,0,1.06,0s.65,0,1,0,.68.07,1,.13l8,29.63a7.72,7.72,0,0,1-.93.13c-.34,0-.67,0-1,0s-.6,0-.9,0a7.25,7.25,0,0,1-.87-.13Zm-8.41-3.67h7.49l-3.76-15.13Z"/><path class="cls-1" d="M409.77,124.69a6.27,6.27,0,0,1,.86-.13c.32,0,.59,0,.82,0s.53,0,.83,0a6.2,6.2,0,0,1,.84.13v29.64a21.34,21.34,0,0,1-2.9.76,19.6,19.6,0,0,1-3.59.31,10.92,10.92,0,0,1-3.5-.56,7.06,7.06,0,0,1-2.89-1.83,9,9,0,0,1-1.95-3.3,15.28,15.28,0,0,1-.71-5,16.26,16.26,0,0,1,.63-4.66,11,11,0,0,1,1.79-3.6,8.18,8.18,0,0,1,2.79-2.33,7.82,7.82,0,0,1,3.6-.83,10,10,0,0,1,1.79.17,10.14,10.14,0,0,1,1.59.41Zm0,12.65a6.19,6.19,0,0,0-1.47-.49,8.23,8.23,0,0,0-1.7-.17,4.62,4.62,0,0,0-2.43.62,5.06,5.06,0,0,0-1.69,1.69,8.31,8.31,0,0,0-1,2.54,14.47,14.47,0,0,0-.33,3.19q0,3.92,1.54,5.61a5.2,5.2,0,0,0,4.1,1.69,13.76,13.76,0,0,0,1.64-.1,7.25,7.25,0,0,0,1.33-.31Z"/><path class="cls-1" d="M416.4,133.76c.32-.06.65-.1,1-.13s.65,0,.92,0,.62,0,1,0a6.24,6.24,0,0,1,.9.13L425,151.19l4.81-17.43a6.27,6.27,0,0,1,.86-.13c.32,0,.62,0,.92,0s.53,0,.85,0,.64.07,1,.13l-6.83,21.14c-.3.06-.59.1-.89.13s-.57,0-.82,0-.52,0-.8,0a7.37,7.37,0,0,1-.84-.13Z"/><path class="cls-1" d="M438.54,145.34a7.77,7.77,0,0,0,1.48,5.07,5.3,5.3,0,0,0,4.19,1.61,10.78,10.78,0,0,0,4.61-1,7.47,7.47,0,0,1,.45,1.5,11.88,11.88,0,0,1,.2,1.75,9.7,9.7,0,0,1-2.48.87,14.44,14.44,0,0,1-3,.29,9.44,9.44,0,0,1-4.09-.81,7.45,7.45,0,0,1-2.82-2.26,9.77,9.77,0,0,1-1.63-3.47,17.69,17.69,0,0,1-.51-4.39,18.62,18.62,0,0,1,.5-4.39,10.54,10.54,0,0,1,1.52-3.54,7.66,7.66,0,0,1,2.58-2.39,7.28,7.28,0,0,1,3.67-.89,6.64,6.64,0,0,1,3.18.74,6.75,6.75,0,0,1,2.28,2,9.5,9.5,0,0,1,1.41,3.1,15.42,15.42,0,0,1,.47,3.89c0,.39,0,.79,0,1.22s0,.79-.07,1.09Zm8.68-3.05a9.42,9.42,0,0,0-.26-2.21,6.06,6.06,0,0,0-.75-1.83,3.92,3.92,0,0,0-1.27-1.26,3.45,3.45,0,0,0-1.82-.47,3.73,3.73,0,0,0-3.2,1.52,8.44,8.44,0,0,0-1.35,4.25Z"/><path class="cls-1" d="M455,133.76a7.2,7.2,0,0,1,.71-.13c.23,0,.47,0,.72,0s.5,0,.75,0a4.11,4.11,0,0,1,.68.13c.07.41.14,1,.21,1.63a16.68,16.68,0,0,1,.1,1.71,8.08,8.08,0,0,1,1.9-2.44,4.44,4.44,0,0,1,3-1l.57,0,.49.07a5.92,5.92,0,0,1,.1.78,7.88,7.88,0,0,1,0,.86c0,.33,0,.68-.05,1s-.08.7-.12,1a1.84,1.84,0,0,0-.57-.09h-.46a5.22,5.22,0,0,0-1.76.31,3.62,3.62,0,0,0-1.5,1.09,5.84,5.84,0,0,0-1.06,2.15,13,13,0,0,0-.39,3.5V154.9a6.2,6.2,0,0,1-.84.13c-.31,0-.59,0-.84,0s-.53,0-.83,0a7.25,7.25,0,0,1-.87-.13Z"/><path class="cls-1" d="M468.36,137H465.7l-.14-.57,5.88-7.92h.27v5.24h4.44a8.22,8.22,0,0,1,.14,1.56,8.07,8.07,0,0,1,0,.87,7.64,7.64,0,0,1-.1.82h-4.44v9.65a25.09,25.09,0,0,0,.12,2.76,4.78,4.78,0,0,0,.41,1.59,1.45,1.45,0,0,0,.79.74,3.63,3.63,0,0,0,1.24.19,5.54,5.54,0,0,0,1.1-.11c.34-.07.64-.14.92-.22a8,8,0,0,1,.29,1.69c0,.57.05,1.08.05,1.52a9.3,9.3,0,0,1-1.43.31,11.79,11.79,0,0,1-1.61.1,5.07,5.07,0,0,1-3.84-1.44c-.93-1-1.39-2.56-1.39-4.78Z"/><path class="cls-1" d="M481,137h-2.22a5,5,0,0,1-.1-.76,8.95,8.95,0,0,1,0-1.69,5,5,0,0,1,.1-.76h5.53V154.9a6.29,6.29,0,0,1-.83.13c-.31,0-.59,0-.84,0s-.5,0-.8,0a6.2,6.2,0,0,1-.84-.13Zm-.75-7.87a8.72,8.72,0,0,1-.09-1.07c0-.39,0-.73,0-1s0-.65,0-1a7.45,7.45,0,0,1,.09-1,8.39,8.39,0,0,1,.95-.13c.35,0,.64,0,.89,0s.55,0,.89,0a7.27,7.27,0,0,1,.92.13,7.45,7.45,0,0,1,.09,1c0,.38,0,.72,0,1s0,.64,0,1a8.72,8.72,0,0,1-.09,1.07,7.29,7.29,0,0,1-.9.12c-.33,0-.62,0-.87,0s-.58,0-.93,0A8.48,8.48,0,0,1,480.22,129.1Z"/><path class="cls-1" d="M489.47,151.07a10.21,10.21,0,0,0,2,.72,9.26,9.26,0,0,0,2.2.27,5.28,5.28,0,0,0,1.5-.21,3.41,3.41,0,0,0,1.25-.62,3.08,3.08,0,0,0,.85-1,2.68,2.68,0,0,0,.33-1.33,3.22,3.22,0,0,0-.26-1.37,2.89,2.89,0,0,0-.68-.9,4.55,4.55,0,0,0-1-.64c-.38-.18-.78-.35-1.21-.52l-1.2-.53a8.42,8.42,0,0,1-3.18-2.23,5.19,5.19,0,0,1-1-3.34,6,6,0,0,1,1.66-4.45,6.61,6.61,0,0,1,4.87-1.65,11.36,11.36,0,0,1,2.61.31,15.17,15.17,0,0,1,2.24.72,11.78,11.78,0,0,1-.26,1.65,10.58,10.58,0,0,1-.46,1.53,14.5,14.5,0,0,0-1.79-.64,7.73,7.73,0,0,0-2.24-.31,4.66,4.66,0,0,0-2.24.53,2,2,0,0,0-1,1.9,2.73,2.73,0,0,0,.24,1.2,2.44,2.44,0,0,0,.65.84,3.88,3.88,0,0,0,.94.6c.35.16.73.33,1.14.49l1.5.62a9.51,9.51,0,0,1,1.56.79,4.69,4.69,0,0,1,1.26,1.13,5.36,5.36,0,0,1,.86,1.65,7.53,7.53,0,0,1,.32,2.33,7.36,7.36,0,0,1-.51,2.78,6.06,6.06,0,0,1-1.45,2.14,6.75,6.75,0,0,1-2.27,1.38,8.4,8.4,0,0,1-2.94.5,13.46,13.46,0,0,1-2.87-.27,12.79,12.79,0,0,1-2.29-.72,9,9,0,0,1,.29-1.67C489.13,152.18,489.29,151.62,489.47,151.07Z"/><path class="cls-1" d="M507.85,145.34c0,2.31.54,4,1.49,5.07a5.3,5.3,0,0,0,4.19,1.61,10.81,10.81,0,0,0,4.61-1,6.9,6.9,0,0,1,.44,1.5,13.45,13.45,0,0,1,.21,1.75,9.84,9.84,0,0,1-2.48.87,14.51,14.51,0,0,1-3,.29,9.52,9.52,0,0,1-4.1-.81,7.45,7.45,0,0,1-2.82-2.26,9.58,9.58,0,0,1-1.62-3.47,17.69,17.69,0,0,1-.51-4.39,18.63,18.63,0,0,1,.49-4.39,10.74,10.74,0,0,1,1.52-3.54,7.85,7.85,0,0,1,2.58-2.39,7.31,7.31,0,0,1,3.67-.89,6.61,6.61,0,0,1,3.18.74,6.78,6.78,0,0,1,2.29,2,9.49,9.49,0,0,1,1.4,3.1,15,15,0,0,1,.48,3.89c0,.39,0,.79,0,1.22s0,.79-.06,1.09Zm8.68-3.05a9.42,9.42,0,0,0-.25-2.21,6.33,6.33,0,0,0-.76-1.83,4,4,0,0,0-1.26-1.26,3.46,3.46,0,0,0-1.83-.47,3.71,3.71,0,0,0-3.19,1.52,8.44,8.44,0,0,0-1.35,4.25Z"/><path class="cls-1" d="M524.32,133.76a6.77,6.77,0,0,1,.74-.13c.23,0,.48,0,.73,0s.48,0,.7,0a7,7,0,0,1,.7.13c.07.41.14,1,.21,1.63s.1,1.24.1,1.71a7.61,7.61,0,0,1,.77-1.43,6,6,0,0,1,1.09-1.21,5.28,5.28,0,0,1,1.45-.87,4.82,4.82,0,0,1,1.81-.33,4.54,4.54,0,0,1,3.16,1,6.32,6.32,0,0,1,1.69,2.83,10.46,10.46,0,0,1,.84-1.41,7.26,7.26,0,0,1,1.11-1.23,5.15,5.15,0,0,1,1.4-.87,4.59,4.59,0,0,1,1.78-.33,5,5,0,0,1,4.42,2.06,11,11,0,0,1,1.39,6.1V154.9a6.27,6.27,0,0,1-.86.13c-.32,0-.6,0-.85,0s-.53,0-.84,0a6.2,6.2,0,0,1-.84-.13V142.62a10,10,0,0,0-.71-4.27,2.47,2.47,0,0,0-2.36-1.42,3.31,3.31,0,0,0-2.82,1.53,7.73,7.73,0,0,0-1.08,4.49v12a6,6,0,0,1-.83.13c-.31,0-.59,0-.84,0s-.53,0-.84,0a6.29,6.29,0,0,1-.83-.13V142.33a9.61,9.61,0,0,0-.69-4.14,2.27,2.27,0,0,0-2.18-1.38,3.08,3.08,0,0,0-1.61.45,4,4,0,0,0-1.31,1.36,7.45,7.45,0,0,0-.89,2.29,13.78,13.78,0,0,0-.33,3.19v10.8a6.29,6.29,0,0,1-.83.13c-.31,0-.59,0-.84,0s-.54,0-.86,0a6.36,6.36,0,0,1-.85-.13Z"/><path class="cls-1" d="M556,145.34c.05,2.31.54,4,1.49,5.07a5.28,5.28,0,0,0,4.18,1.61,10.82,10.82,0,0,0,4.62-1,6.9,6.9,0,0,1,.44,1.5,13.45,13.45,0,0,1,.21,1.75,9.84,9.84,0,0,1-2.48.87,14.51,14.51,0,0,1-3,.29,9.49,9.49,0,0,1-4.1-.81,7.45,7.45,0,0,1-2.82-2.26,9.58,9.58,0,0,1-1.62-3.47,17.69,17.69,0,0,1-.51-4.39,18.63,18.63,0,0,1,.49-4.39,10.74,10.74,0,0,1,1.52-3.54,7.66,7.66,0,0,1,2.58-2.39,7.31,7.31,0,0,1,3.67-.89,6.61,6.61,0,0,1,3.18.74,6.88,6.88,0,0,1,2.29,2,9.7,9.7,0,0,1,1.4,3.1,15,15,0,0,1,.48,3.89c0,.39,0,.79,0,1.22s0,.79-.06,1.09Zm8.68-3.05a8.92,8.92,0,0,0-.26-2.21,6.06,6.06,0,0,0-.75-1.83,4,4,0,0,0-1.26-1.26,3.46,3.46,0,0,0-1.83-.47,3.71,3.71,0,0,0-3.19,1.52,8.44,8.44,0,0,0-1.35,4.25Z"/><path class="cls-1" d="M572.49,133.76a7,7,0,0,1,.73-.13c.24,0,.49,0,.74,0s.48,0,.7,0,.45.07.7.13c.07.41.14,1,.2,1.67s.11,1.28.11,1.75a7.31,7.31,0,0,1,.87-1.4,6.87,6.87,0,0,1,1.21-1.26,6.21,6.21,0,0,1,1.57-.91,5.33,5.33,0,0,1,1.95-.35,5,5,0,0,1,4.44,2.08,10.88,10.88,0,0,1,1.44,6.17V154.9a6.52,6.52,0,0,1-.86.13c-.32,0-.6,0-.85,0s-.53,0-.84,0a6.2,6.2,0,0,1-.84-.13V142.62a9.42,9.42,0,0,0-.75-4.31,2.53,2.53,0,0,0-2.39-1.38,4.17,4.17,0,0,0-1.81.41,4.12,4.12,0,0,0-1.5,1.28,6.92,6.92,0,0,0-1,2.25,12.29,12.29,0,0,0-.39,3.32V154.9a6.29,6.29,0,0,1-.83.13c-.31,0-.59,0-.84,0s-.54,0-.86,0a6.11,6.11,0,0,1-.85-.13Z"/><path class="cls-1" d="M592.88,137h-2.66l-.14-.57,5.88-7.92h.27v5.24h4.44a8.22,8.22,0,0,1,.14,1.56c0,.31,0,.59,0,.87s-.06.55-.11.82h-4.44v9.65a25.09,25.09,0,0,0,.12,2.76,4.78,4.78,0,0,0,.41,1.59,1.49,1.49,0,0,0,.79.74,3.63,3.63,0,0,0,1.24.19,5.47,5.47,0,0,0,1.1-.11c.34-.07.65-.14.92-.22a7.38,7.38,0,0,1,.29,1.69c0,.57,0,1.08,0,1.52a9,9,0,0,1-1.43.31,11.69,11.69,0,0,1-1.61.1,5.07,5.07,0,0,1-3.84-1.44c-.92-1-1.39-2.56-1.39-4.78Z"/><path class="cls-1" d="M624.93,148.06H615.6l-1.67,6.84c-.3.06-.59.1-.89.13s-.59,0-.89,0-.63,0-.94,0a6.29,6.29,0,0,1-.83-.13l8-29.63a8.58,8.58,0,0,1,1-.13c.34,0,.69,0,1.06,0s.64,0,1,0,.67.07,1,.13l8,29.63a7.45,7.45,0,0,1-.93.13c-.34,0-.67,0-1,0s-.59,0-.9,0a7.25,7.25,0,0,1-.87-.13Zm-8.4-3.67H624l-3.76-15.13Z"/><path class="cls-1" d="M643,152.18a6,6,0,0,1,4.4,1.57,5.8,5.8,0,0,1,1.37,4.08,6.28,6.28,0,0,1-.72,3,7.26,7.26,0,0,1-2,2.31,9.2,9.2,0,0,1-3,1.48,12.81,12.81,0,0,1-3.74.52,9.14,9.14,0,0,1-5.36-1.32,4.77,4.77,0,0,1-1.85-4.16,6.08,6.08,0,0,1,.75-3,5.9,5.9,0,0,1,2-2.13,4.26,4.26,0,0,1-1.14-1.34,3.92,3.92,0,0,1-.47-2,5.7,5.7,0,0,1,.57-2.63,6.48,6.48,0,0,1,1.52-2,6.83,6.83,0,0,1-1.81-2.46,8,8,0,0,1-.69-3.4,8.68,8.68,0,0,1,.48-2.92,6.84,6.84,0,0,1,1.39-2.37,6.22,6.22,0,0,1,2.23-1.59,7.7,7.7,0,0,1,3-.58,6.94,6.94,0,0,1,2.79.54,7.41,7.41,0,0,1,2.13,1.36,5.3,5.3,0,0,1,1.85-1.09,7.24,7.24,0,0,1,2.56-.44,10.27,10.27,0,0,1,.14,1.73c0,.31,0,.62,0,.95s0,.66-.1,1h-3.07a6.82,6.82,0,0,1,.58,1.53,8.24,8.24,0,0,1,.2,1.89,8.59,8.59,0,0,1-.51,3.05,6.67,6.67,0,0,1-1.45,2.33,6.38,6.38,0,0,1-2.24,1.49,7.71,7.71,0,0,1-2.84.51,7.94,7.94,0,0,1-2.52-.37,3.71,3.71,0,0,0-.94,1,2.53,2.53,0,0,0-.46,1.46,2,2,0,0,0,.44,1.3,2.66,2.66,0,0,0,2,.6Zm-4.62,3.26a2.58,2.58,0,0,0-2.3,1,4,4,0,0,0-.77,2.47,3.11,3.11,0,0,0,.31,1.49,2.33,2.33,0,0,0,.87.92,3.76,3.76,0,0,0,1.33.5,9.79,9.79,0,0,0,1.69.14,7.25,7.25,0,0,0,4.27-1.09,3.25,3.25,0,0,0,1.54-2.74,2.6,2.6,0,0,0-.65-1.9,3.47,3.47,0,0,0-2.39-.7ZM640,145.13a3.17,3.17,0,0,0,2.74-1.23,5.34,5.34,0,0,0,.89-3.18,5.48,5.48,0,0,0-.89-3.23,3.14,3.14,0,0,0-2.74-1.26,3.06,3.06,0,0,0-2.71,1.26,5.55,5.55,0,0,0-.87,3.23,5.41,5.41,0,0,0,.87,3.18A3.09,3.09,0,0,0,640,145.13Z"/><path class="cls-1" d="M654.72,145.34a7.77,7.77,0,0,0,1.48,5.07,5.3,5.3,0,0,0,4.19,1.61,10.78,10.78,0,0,0,4.61-1,7.47,7.47,0,0,1,.45,1.5,11.88,11.88,0,0,1,.2,1.75,9.7,9.7,0,0,1-2.48.87,14.44,14.44,0,0,1-3,.29,9.52,9.52,0,0,1-4.1-.81,7.49,7.49,0,0,1-2.81-2.26,9.77,9.77,0,0,1-1.63-3.47,17.69,17.69,0,0,1-.51-4.39,18.62,18.62,0,0,1,.5-4.39,10.54,10.54,0,0,1,1.52-3.54,7.66,7.66,0,0,1,2.58-2.39,7.28,7.28,0,0,1,3.67-.89,6.64,6.64,0,0,1,3.18.74,6.75,6.75,0,0,1,2.28,2,9.5,9.5,0,0,1,1.41,3.1,15.42,15.42,0,0,1,.47,3.89c0,.39,0,.79,0,1.22s-.05.79-.07,1.09Zm8.68-3.05a9.42,9.42,0,0,0-.26-2.21,6.06,6.06,0,0,0-.75-1.83,3.92,3.92,0,0,0-1.27-1.26,3.45,3.45,0,0,0-1.82-.47,3.73,3.73,0,0,0-3.2,1.52,8.44,8.44,0,0,0-1.35,4.25Z"/><path class="cls-1" d="M671.19,133.76a6.6,6.6,0,0,1,.73-.13c.24,0,.48,0,.73,0s.49,0,.7,0a7,7,0,0,1,.7.13c.07.41.14,1,.21,1.67s.1,1.28.1,1.75a8.46,8.46,0,0,1,.87-1.4,7.28,7.28,0,0,1,1.22-1.26,5.88,5.88,0,0,1,1.57-.91,5.31,5.31,0,0,1,1.94-.35,5.05,5.05,0,0,1,4.45,2.08,11,11,0,0,1,1.43,6.17V154.9a6.11,6.11,0,0,1-.85.13c-.32,0-.61,0-.86,0s-.53,0-.83,0a6.2,6.2,0,0,1-.84-.13V142.62a9.42,9.42,0,0,0-.75-4.31,2.53,2.53,0,0,0-2.39-1.38,4,4,0,0,0-3.32,1.69,6.92,6.92,0,0,0-1,2.25,12.29,12.29,0,0,0-.39,3.32V154.9a6.2,6.2,0,0,1-.84.13c-.31,0-.59,0-.84,0s-.53,0-.85,0a6.11,6.11,0,0,1-.85-.13Z"/><path class="cls-1" d="M702.62,151.23a7.27,7.27,0,0,1,.47,1.45,8.67,8.67,0,0,1,.24,1.77,10.73,10.73,0,0,1-4.61,1,7.69,7.69,0,0,1-6.59-3,13.22,13.22,0,0,1-2.22-8.06,16.88,16.88,0,0,1,.54-4.37,10.76,10.76,0,0,1,1.63-3.5,7.86,7.86,0,0,1,2.68-2.35,7.69,7.69,0,0,1,3.72-.87,13.52,13.52,0,0,1,2.53.21,9.17,9.17,0,0,1,2.08.66,10.37,10.37,0,0,1-.15,1.63,8.08,8.08,0,0,1-.43,1.62,9.93,9.93,0,0,0-3.82-.7,4.29,4.29,0,0,0-3.93,2.11,10.42,10.42,0,0,0-1.3,5.56q0,4,1.47,5.79a4.86,4.86,0,0,0,4,1.84,10.33,10.33,0,0,0,1.9-.17A7.4,7.4,0,0,0,702.62,151.23Z"/><path class="cls-1" d="M713.24,154.94l-.57,0-.56,0-.72,0c-.25,0-.45,0-.61-.07L705,133.76a6.81,6.81,0,0,1,.92-.11l.89,0,1,0a5.52,5.52,0,0,1,.93.11l4.85,19.66,5-19.66a9.13,9.13,0,0,1,1.67-.13l.86,0a7.91,7.91,0,0,1,.95.11l-6.8,25.43a19.2,19.2,0,0,1-1,2.84,6.82,6.82,0,0,1-1.16,1.86,3.56,3.56,0,0,1-1.45,1,5.55,5.55,0,0,1-1.86.29,9.39,9.39,0,0,1-2.91-.5A9.54,9.54,0,0,1,707,163a9.08,9.08,0,0,1,.41-1.48c.21.08.48.17.84.27a4.56,4.56,0,0,0,1.14.14,3.22,3.22,0,0,0,.84-.1,1.78,1.78,0,0,0,.73-.41,3.24,3.24,0,0,0,.64-.89,9.15,9.15,0,0,0,.56-1.57Z"/><path class="cls-1" d="M30.21,101.17A63.42,63.42,0,0,1,8.92,84.75l6.79-4.3A58.81,58.81,0,0,0,30.9,100.12Z"/><path class="cls-1" d="M7.72,49.45A49.73,49.73,0,0,1,19.53,28.4a77.26,77.26,0,0,1,19.4-15.14A101.81,101.81,0,0,1,50.09,7.94,110.8,110.8,0,0,1,61.84,4a118.91,118.91,0,0,1,73.8,4.05A88.11,88.11,0,0,1,158,21.25,63.45,63.45,0,0,1,163,25.74l2.37,2.4c.76.85,1.48,1.73,2.21,2.6l1.09,1.32.54.66.49.71,2,2.85a3.63,3.63,0,0,1,.38,3.79,9.78,9.78,0,0,1-1.48,2.69,19.48,19.48,0,0,1-3.23,3.36l-1.14.55c-2.07.47-3.33.6-4.63.79a15.16,15.16,0,0,1-2.88.12,4,4,0,0,1-1.72-.38,2.12,2.12,0,0,1-.9-.85l-1.34-2-.33-.5L154,43.4l-.77-.94c-.52-.62-1-1.26-1.55-1.88L149.9,38.8a44.22,44.22,0,0,0-3.68-3.4,73.31,73.31,0,0,0-17.61-10.92c-12.91-5.89-27.43-8.7-42.07-9.25-3.66-.09-7.34-.06-11,.16s-7.32.65-11,1.2a97.54,97.54,0,0,0-10.82,2.25A92.49,92.49,0,0,0,43.2,22.25,82.14,82.14,0,0,0,33.11,26.9a72.92,72.92,0,0,0-9.37,6,57.13,57.13,0,0,0-8.24,7.63A49.66,49.66,0,0,0,8.9,49.9Z"/><path class="cls-1" d="M24.73,143.8a19.81,19.81,0,0,0-1.54,2.54l-.51,1.11c-.16.37-.27.7-.39,1.05a12.3,12.3,0,0,0-.45,1.87l-.08.85a6.19,6.19,0,0,0,0,.76c.18,2,1.33,3.17,2.38,4.44a41.39,41.39,0,0,0,3.31,3.71l1.78,1.77c.58.6,1.26,1.09,1.89,1.65A63.74,63.74,0,0,0,48.54,174a97.39,97.39,0,0,0,19.71,5.49,155,155,0,0,0,20.43,2.18,110.3,110.3,0,0,0,40.83-6,89.13,89.13,0,0,0,18.79-9.19,76.12,76.12,0,0,0,16.13-13.67l1.14.86a74.11,74.11,0,0,1-14.75,16.25A94.23,94.23,0,0,1,132,181.66,111.39,111.39,0,0,1,88.68,192a95.9,95.9,0,0,1-22.47-1.91,112.11,112.11,0,0,1-21.56-6.83A139.85,139.85,0,0,1,24.46,172.7c-3.26-2-6.42-4.31-9.53-6.73-.39-.3-.79-.59-1.17-.91l-1.12-1a8.08,8.08,0,0,0-2.82-1.45c-2.29-.66-5-1-9.82-.13Z"/><path class="cls-1" d="M30.23,100A106.73,106.73,0,0,1,68.46,87.29a117.18,117.18,0,0,1,40.83,1.51,98.92,98.92,0,0,1,38.06,16.9,88,88,0,0,1,8.17,7,75.49,75.49,0,0,1,7.2,8.13A64.76,64.76,0,0,1,173,140.4l-13.42,3.72c-2.6-11.33-9.64-21.86-19-30a89.81,89.81,0,0,0-33.22-17.88,111.27,111.27,0,0,0-38.46-4.42,104,104,0,0,0-38,9.47Z"/><ellipse class="cls-1" cx="60.55" cy="141.83" rx="21.07" ry="19.51"/><ellipse class="cls-1" cx="120.18" cy="143.85" rx="21.07" ry="19.51"/><ellipse class="cls-1" cx="122.49" cy="61.63" rx="20.87" ry="19.62"/><ellipse class="cls-1" cx="60.55" cy="61.63" rx="20.87" ry="19.62"/></g></g></svg>